<mxfile host="app.diagrams.net" modified="2021-11-11T12:53:55.019Z" agent="5.0 (X11)" etag="lRLp5fTtaIy7ZJQFyyEm" version="15.7.3" type="github">
  <diagram id="KhphvJYuWum23t--19Nr" name="Page-1">
    <mxGraphModel dx="1936" dy="1091" grid="1" gridSize="10" guides="1" tooltips="1" connect="1" arrows="1" fold="1" page="1" pageScale="1" pageWidth="850" pageHeight="1100" math="0" shadow="0">
      <root>
        <mxCell id="0" />
        <mxCell id="1" parent="0" />
        <mxCell id="1B9T32VkmgD5oWqqy-3F-1" value="UR3&lt;br&gt;robot_4&lt;br&gt;192.168.66.4" style="rounded=0;whiteSpace=wrap;html=1;" vertex="1" parent="1">
          <mxGeometry x="130" y="120" width="120" height="60" as="geometry" />
        </mxCell>
        <mxCell id="1B9T32VkmgD5oWqqy-3F-2" value="UR3&lt;br&gt;robot_5&lt;br&gt;192.168.66.2" style="rounded=0;whiteSpace=wrap;html=1;" vertex="1" parent="1">
          <mxGeometry x="660" y="120" width="120" height="60" as="geometry" />
        </mxCell>
        <mxCell id="1B9T32VkmgD5oWqqy-3F-3" value="&lt;div&gt;ROS_PC_4&lt;br&gt;&lt;/div&gt;192.168.66.3" style="rounded=0;whiteSpace=wrap;html=1;" vertex="1" parent="1">
          <mxGeometry x="130" y="310" width="120" height="60" as="geometry" />
        </mxCell>
        <mxCell id="1B9T32VkmgD5oWqqy-3F-4" value="ROS_PC_5&lt;br&gt;192.168.66.5" style="rounded=0;whiteSpace=wrap;html=1;" vertex="1" parent="1">
          <mxGeometry x="660" y="310" width="120" height="60" as="geometry" />
        </mxCell>
        <mxCell id="1B9T32VkmgD5oWqqy-3F-19" style="edgeStyle=orthogonalEdgeStyle;rounded=0;orthogonalLoop=1;jettySize=auto;html=1;entryX=1;entryY=0.5;entryDx=0;entryDy=0;startArrow=none;startFill=0;" edge="1" parent="1" source="1B9T32VkmgD5oWqqy-3F-5" target="1B9T32VkmgD5oWqqy-3F-17">
          <mxGeometry relative="1" as="geometry" />
        </mxCell>
        <mxCell id="1B9T32VkmgD5oWqqy-3F-21" value="USB3" style="edgeLabel;html=1;align=center;verticalAlign=middle;resizable=0;points=[];" vertex="1" connectable="0" parent="1B9T32VkmgD5oWqqy-3F-19">
          <mxGeometry x="-0.5478" y="1" relative="1" as="geometry">
            <mxPoint as="offset" />
          </mxGeometry>
        </mxCell>
        <mxCell id="1B9T32VkmgD5oWqqy-3F-5" value="RealSense_D435" style="rounded=0;whiteSpace=wrap;html=1;" vertex="1" parent="1">
          <mxGeometry x="990" y="370" width="120" height="60" as="geometry" />
        </mxCell>
        <mxCell id="1B9T32VkmgD5oWqqy-3F-20" style="edgeStyle=orthogonalEdgeStyle;rounded=0;orthogonalLoop=1;jettySize=auto;html=1;entryX=1;entryY=0.5;entryDx=0;entryDy=0;startArrow=none;startFill=0;" edge="1" parent="1" source="1B9T32VkmgD5oWqqy-3F-6" target="1B9T32VkmgD5oWqqy-3F-18">
          <mxGeometry relative="1" as="geometry" />
        </mxCell>
        <mxCell id="1B9T32VkmgD5oWqqy-3F-22" value="USB3" style="edgeLabel;html=1;align=center;verticalAlign=middle;resizable=0;points=[];" vertex="1" connectable="0" parent="1B9T32VkmgD5oWqqy-3F-20">
          <mxGeometry x="-0.5652" y="-2" relative="1" as="geometry">
            <mxPoint as="offset" />
          </mxGeometry>
        </mxCell>
        <mxCell id="1B9T32VkmgD5oWqqy-3F-6" value="DaHeng" style="rounded=0;whiteSpace=wrap;html=1;" vertex="1" parent="1">
          <mxGeometry x="990" y="550" width="120" height="60" as="geometry" />
        </mxCell>
        <mxCell id="1B9T32VkmgD5oWqqy-3F-7" value="flexible_assembly_bringup" style="rounded=0;whiteSpace=wrap;html=1;" vertex="1" parent="1">
          <mxGeometry x="130" y="370" width="170" height="40" as="geometry" />
        </mxCell>
        <mxCell id="1B9T32VkmgD5oWqqy-3F-8" value="flexible_assembly_bringup" style="rounded=0;whiteSpace=wrap;html=1;" vertex="1" parent="1">
          <mxGeometry x="660" y="370" width="170" height="40" as="geometry" />
        </mxCell>
        <mxCell id="1B9T32VkmgD5oWqqy-3F-9" value="flexible_assembly_UR4" style="rounded=0;whiteSpace=wrap;html=1;" vertex="1" parent="1">
          <mxGeometry x="130" y="410" width="170" height="40" as="geometry" />
        </mxCell>
        <mxCell id="1B9T32VkmgD5oWqqy-3F-11" value="flexible_assembly_UR5" style="rounded=0;whiteSpace=wrap;html=1;" vertex="1" parent="1">
          <mxGeometry x="660" y="410" width="170" height="40" as="geometry" />
        </mxCell>
        <mxCell id="1B9T32VkmgD5oWqqy-3F-14" value="TCP/IP" style="edgeStyle=orthogonalEdgeStyle;rounded=0;orthogonalLoop=1;jettySize=auto;html=1;startArrow=classic;startFill=1;" edge="1" parent="1" source="1B9T32VkmgD5oWqqy-3F-12" target="1B9T32VkmgD5oWqqy-3F-3">
          <mxGeometry relative="1" as="geometry" />
        </mxCell>
        <mxCell id="1B9T32VkmgD5oWqqy-3F-12" value="URCap&lt;br&gt;external_control" style="rounded=0;whiteSpace=wrap;html=1;" vertex="1" parent="1">
          <mxGeometry x="130" y="180" width="120" height="40" as="geometry" />
        </mxCell>
        <mxCell id="1B9T32VkmgD5oWqqy-3F-15" value="TCP/IP" style="edgeStyle=orthogonalEdgeStyle;rounded=0;orthogonalLoop=1;jettySize=auto;html=1;startArrow=classic;startFill=1;" edge="1" parent="1" source="1B9T32VkmgD5oWqqy-3F-13" target="1B9T32VkmgD5oWqqy-3F-4">
          <mxGeometry relative="1" as="geometry" />
        </mxCell>
        <mxCell id="1B9T32VkmgD5oWqqy-3F-13" value="URCap&lt;br&gt;external_control" style="rounded=0;whiteSpace=wrap;html=1;" vertex="1" parent="1">
          <mxGeometry x="660" y="180" width="120" height="40" as="geometry" />
        </mxCell>
        <mxCell id="1B9T32VkmgD5oWqqy-3F-17" value="part_pose_pub" style="rounded=0;whiteSpace=wrap;html=1;" vertex="1" parent="1">
          <mxGeometry x="660" y="450" width="170" height="40" as="geometry" />
        </mxCell>
        <mxCell id="1B9T32VkmgD5oWqqy-3F-18" value="component_pickpose_pub" style="rounded=0;whiteSpace=wrap;html=1;" vertex="1" parent="1">
          <mxGeometry x="660" y="490" width="170" height="40" as="geometry" />
        </mxCell>
        <mxCell id="1B9T32VkmgD5oWqqy-3F-23" style="edgeStyle=orthogonalEdgeStyle;rounded=0;orthogonalLoop=1;jettySize=auto;html=1;entryX=1;entryY=0.5;entryDx=0;entryDy=0;startArrow=none;startFill=0;" edge="1" parent="1" source="1B9T32VkmgD5oWqqy-3F-25" target="1B9T32VkmgD5oWqqy-3F-27">
          <mxGeometry relative="1" as="geometry">
            <mxPoint x="1130" y="650" as="targetPoint" />
            <Array as="points" />
          </mxGeometry>
        </mxCell>
        <mxCell id="1B9T32VkmgD5oWqqy-3F-24" value="USB3" style="edgeLabel;html=1;align=center;verticalAlign=middle;resizable=0;points=[];" vertex="1" connectable="0" parent="1B9T32VkmgD5oWqqy-3F-23">
          <mxGeometry x="-0.5652" y="-2" relative="1" as="geometry">
            <mxPoint as="offset" />
          </mxGeometry>
        </mxCell>
        <mxCell id="1B9T32VkmgD5oWqqy-3F-25" value="DaHeng" style="rounded=0;whiteSpace=wrap;html=1;" vertex="1" parent="1">
          <mxGeometry x="1290" y="670" width="120" height="60" as="geometry" />
        </mxCell>
        <mxCell id="1B9T32VkmgD5oWqqy-3F-26" value="component_pickpose_pub" style="rounded=0;whiteSpace=wrap;html=1;" vertex="1" parent="1">
          <mxGeometry x="660" y="680" width="170" height="40" as="geometry" />
        </mxCell>
        <mxCell id="1B9T32VkmgD5oWqqy-3F-29" value="TCP./IP ros bridge" style="edgeStyle=orthogonalEdgeStyle;rounded=0;orthogonalLoop=1;jettySize=auto;html=1;entryX=1;entryY=0.5;entryDx=0;entryDy=0;startArrow=none;startFill=0;endArrow=classic;endFill=1;" edge="1" parent="1" source="1B9T32VkmgD5oWqqy-3F-27" target="1B9T32VkmgD5oWqqy-3F-26">
          <mxGeometry relative="1" as="geometry" />
        </mxCell>
        <mxCell id="1B9T32VkmgD5oWqqy-3F-27" value="Tselmeg_PC" style="rounded=0;whiteSpace=wrap;html=1;" vertex="1" parent="1">
          <mxGeometry x="1020" y="670" width="120" height="60" as="geometry" />
        </mxCell>
      </root>
    </mxGraphModel>
  </diagram>
</mxfile>
